<?xml version="1.0" encoding="UTF-8"?>
<svg width="32px" height="32px" viewBox="0 0 32 32" version="1.1" xmlns="http://www.w3.org/2000/svg" xmlns:xlink="http://www.w3.org/1999/xlink">
    <title>全屏</title>
    <g id="中文官网后台" stroke="none" stroke-width="1" fill="none" fill-rule="evenodd">
        <g id="全屏">
            <rect id="矩形" fill="#000000" opacity="0.700890677" x="0" y="0" width="32" height="32" rx="2"></rect>
            <g id="编组-20" transform="translate(4.000000, 4.000000)" fill-rule="nonzero">
                <path d="M3.96521739,2.4447205 C3.99503106,2.38509317 4.02484472,2.29565217 4.05465839,2.23602484 L4.77018634,2.23602484 C5.69440994,2.23602484 6.58881988,2.23602484 7.51304348,2.20621118 C8.04968944,2.17639752 8.37763975,1.8484472 8.43726708,1.31180124 C8.49689441,0.745341615 8.28819876,0.327950311 7.7515528,0.149068323 C7.51304348,0.0596273292 7.21490683,0.0298136646 6.94658385,0.0298136646 L1.49068323,0.0298136646 C0.506832298,0.0298136646 0.0298136646,0.477018634 0.0298136646,1.46086957 L0.0298136646,6.97639752 C0.0298136646,7.1552795 0.0596273292,7.33416149 0.0894409938,7.51304348 C0.238509317,8.1689441 0.655900621,8.46708075 1.28198758,8.40745342 C1.87826087,8.34782609 2.20621118,7.99006211 2.20621118,7.30434783 C2.23602484,6.40993789 2.20621118,5.51552795 2.20621118,4.65093168 C2.20621118,4.44223602 2.23602484,4.23354037 2.26583851,4.02484472 C2.32546584,3.99503106 2.38509317,3.99503106 2.4447205,3.96521739 C2.89192547,4.41242236 3.30931677,4.88944099 3.75652174,5.33664596 C4.41242236,6.02236025 5.09813665,6.67826087 5.78385093,7.33416149 C6.17142857,7.69192547 6.6484472,7.7515528 7.09565217,7.48322981 C7.54285714,7.21490683 7.72173913,6.79751553 7.60248447,6.32049689 C7.54285714,6.05217391 7.33416149,5.8136646 7.12546584,5.60496894 C6.11180124,4.56149068 5.03850932,3.51801242 3.96521739,2.4447205 L3.96521739,2.4447205 Z M21.630634,3.91158589 C21.6604477,4.2395362 21.6604477,4.41841819 21.6604477,4.62711384 C21.6604477,5.46189645 21.630634,6.26686539 21.6604477,7.101648 C21.6902613,7.66810763 21.8393296,8.17493993 22.4654166,8.35382192 C23.2405719,8.59233123 23.8368452,8.1153126 23.8666588,7.22090266 C23.8964725,5.34264179 23.8666588,3.46438092 23.8964725,1.58612005 C23.9262862,0.483014462 23.5387085,0.00599582856 22.4356029,0.00599582856 L17.0393296,0.00599582856 C16.830634,0.00599582856 16.6219383,0.0358094932 16.4132427,0.0656231578 C15.7573421,0.214691481 15.4592054,0.632082785 15.5188327,1.25816974 C15.5784601,1.85444303 15.9362241,2.18239334 16.6219383,2.18239334 C17.5163483,2.21220701 18.4107582,2.18239334 19.2753545,2.18239334 C19.4840501,2.18239334 19.6927458,2.21220701 20.0206961,2.24202067 C19.7523731,2.51034365 19.6033048,2.68922564 19.4542365,2.83829397 C18.5001992,3.79233123 17.5461619,4.71655483 16.6219383,5.70040577 C16.1449197,6.20723806 16.1747334,6.86313869 16.6219383,7.31034365 C17.0691433,7.75754862 17.6952303,7.72773496 18.2020626,7.22090266 C19.1560998,6.29667906 20.0803234,5.34264179 21.004547,4.41841819 C21.183429,4.26934987 21.362311,4.15009521 21.630634,3.91158589 L21.630634,3.91158589 Z M2.47630499,19.9746318 C2.41667766,19.9448181 2.35705033,19.9448181 2.297423,19.9150044 C2.297423,19.7063088 2.26760934,19.4677995 2.26760934,19.2591038 C2.26760934,18.3348802 2.26760934,17.4106566 2.23779567,16.4566193 C2.20798201,15.949787 1.90984536,15.6218367 1.40301306,15.5323957 C0.836553435,15.4429547 0.419162131,15.6218367 0.210466478,16.1882964 C0.0912118201,16.4566193 0.0912118201,16.7845696 0.0613981555,17.11252 L0.0613981555,21.7634516 C0.0613981555,23.7609672 0.210466478,23.8802218 2.17816834,23.8802218 L7.39555965,23.8802218 C8.0216466,23.8802218 8.37941058,23.5224578 8.43903791,22.9858119 C8.49866524,22.3597249 8.23034225,21.8528926 7.57444163,21.7932653 C6.70984536,21.7038243 5.81543542,21.733638 4.92102548,21.7038243 L3.93717455,21.7038243 C4.20549753,21.4056877 4.35456586,21.2268057 4.53344784,21.0777373 L7.24649132,18.3646939 C7.81295095,17.7982342 7.84276462,17.1423336 7.36574598,16.665315 C6.88872735,16.1882964 6.26264039,16.2479237 5.6663671,16.8143833 C5.48748511,16.9634516 5.33841679,17.1423336 5.18934847,17.2914019 C4.26512486,18.1559982 3.37071493,19.0504082 2.47630499,19.9746318 L2.47630499,19.9746318 Z M20.0591608,21.5999828 C19.7013969,21.6297965 19.5821422,21.6596102 19.4330739,21.6596102 C18.5982913,21.6596102 17.733695,21.5999828 16.8989124,21.6894238 C16.4815211,21.7192375 15.9746888,21.9279331 15.6765521,22.2260698 C15.4678565,22.4347654 15.4678565,23.0310387 15.6169248,23.2993617 C15.7659931,23.5676847 16.2131981,23.8360077 16.5411484,23.8360077 C18.5982913,23.895635 20.6256205,23.895635 22.6827633,23.895635 C23.3982913,23.895635 23.8753099,23.3291754 23.8454962,22.5838338 C23.8156826,22.0471878 23.8156826,21.5105418 23.8156826,20.9738959 L23.8156826,16.6211008 C23.8156826,15.9353866 23.4877323,15.5776226 22.9212726,15.4881816 C22.265372,15.4285543 21.818167,15.7266909 21.6989124,16.4124052 C21.6392851,16.7105418 21.6392851,17.0384922 21.6392851,17.3366288 L21.6392851,19.9900449 C21.3709621,19.7515356 21.2218938,19.632281 21.0728254,19.4832126 C20.1486018,18.558989 19.2243782,17.6347654 18.3001546,16.7403555 C18.091459,16.5614735 17.8529497,16.3527779 17.5846267,16.2931505 C17.0777944,16.1738959 16.6305894,16.3825915 16.3920801,16.8596102 C16.1535708,17.3366288 16.2430118,17.7838338 16.6305894,18.1415977 C17.7038813,19.274517 18.8069869,20.3776226 20.0591608,21.5999828 L20.0591608,21.5999828 Z" id="形状" fill="#FFFFFF"></path>
                <path d="M14.9862965,8 L15.0866702,8.0028551 C15.2859939,8.01927195 15.4739277,8.09421842 15.6284036,8.21841542 L15.70315,8.28479657 L15.7700658,8.35831549 L15.8291511,8.43683084 C15.917423,8.5681656 15.9736608,8.71805853 15.9928813,8.875803 L16,8.99500357 L15.9992881,14.821556 L15.9786439,14.821556 L15.9786439,15.0049964 L15.9743727,15.1006424 C15.9287215,15.5724556 15.5576727,15.9465878 15.0873821,15.9950036 L14.9919915,16 L8.99234739,16 L8.89695675,15.9957173 C8.42640306,15.949944 8.05326967,15.577902 8.00498309,15.1063526 L8,15.0107066 L8,8.99500357 L8.00427122,8.8993576 C8.04911906,8.4261242 8.42427478,8.04996431 8.89695675,8.00428266 L8.99234739,8 L14.9862965,8 Z" id="路径" fill="#FFA216"></path>
                <path d="M3.90559006,2.38509317 C4.97888199,3.45838509 6.05217391,4.50186335 7.09565217,5.57515528 C7.30434783,5.78385093 7.48322981,6.02236025 7.57267081,6.29068323 C7.69192547,6.76770186 7.51304348,7.18509317 7.06583851,7.45341615 C6.61863354,7.72173913 6.14161491,7.69192547 5.75403727,7.30434783 C5.06832298,6.6484472 4.3826087,5.96273292 3.72670807,5.3068323 C3.27950311,4.85962733 2.8621118,4.3826087 2.41490683,3.93540373 C2.3552795,3.96521739 2.29565217,3.96521739 2.23602484,3.99503106 C2.20621118,4.20372671 2.17639752,4.41242236 2.17639752,4.62111801 L2.17639752,7.27453416 C2.17639752,7.96024845 1.81863354,8.31801242 1.25217391,8.37763975 C0.626086957,8.43726708 0.208695652,8.13913043 0.0596273292,7.48322981 C0.0298136646,7.30434783 0,7.12546584 0,6.94658385 L0,1.4310559 C0,0.447204969 0.447204969,0 1.46086957,0 L6.91677019,0 C7.18509317,0 7.45341615,0.0298136646 7.72173913,0.119254658 C8.25838509,0.298136646 8.46708075,0.71552795 8.40745342,1.28198758 C8.34782609,1.81863354 8.01987578,2.17639752 7.48322981,2.17639752 C6.58881988,2.20621118 5.66459627,2.20621118 4.74037267,2.20621118 L4.02484472,2.20621118 C3.96521739,2.23602484 3.93540373,2.32546584 3.90559006,2.38509317 L3.90559006,2.38509317 Z M21.5113793,3.88177223 C21.27287,4.12028154 21.093988,4.2395362 20.9449197,4.41841819 L18.1424352,7.22090266 C17.6356029,7.72773496 17.009516,7.75754862 16.562311,7.31034365 C16.115106,6.86313869 16.0852924,6.23705173 16.562311,5.70040577 C17.4865346,4.71655483 18.4405719,3.79233123 19.3946091,2.83829397 C19.5436775,2.68922564 19.6927458,2.51034365 19.9610688,2.24202067 C19.6331185,2.21220701 19.4244228,2.18239334 19.2157272,2.18239334 L16.562311,2.18239334 C15.9064104,2.18239334 15.5188327,1.82462937 15.4592054,1.25816974 C15.3995781,0.632082785 15.6977147,0.214691481 16.3536154,0.0656231578 C16.562311,0.00599582856 16.7710067,0.00599582856 16.9797023,0.00599582856 L22.3759756,0.00599582856 C23.4790812,0.00599582856 23.8666588,0.483014462 23.8368452,1.58612005 C23.7175905,3.43456726 23.7474042,5.31282813 23.7474042,7.191089 C23.7474042,8.08549893 23.1511309,8.56251757 22.3461619,8.32400825 C21.720075,8.14512626 21.5710067,7.6084803 21.541193,7.07183434 C21.5113793,6.23705173 21.541193,5.43208279 21.541193,4.59730018 C21.541193,4.38860452 21.5113793,4.20972254 21.5113793,3.88177223 L21.5113793,3.88177223 Z M2.47630499,20.0101293 C3.37071493,19.1157194 4.26512486,18.1914958 5.18934847,17.2970859 L5.6663671,16.8200672 C6.26264039,16.2536076 6.88872735,16.2237939 7.36574598,16.6709989 C7.84276462,17.1182039 7.81295095,17.8039181 7.24649132,18.3703778 C6.35208139,19.2946014 5.42785778,20.1890113 4.53344784,21.0834213 C4.38437952,21.2324896 4.2353112,21.4113716 3.93717455,21.7095082 L4.92102548,21.7095082 C5.81543542,21.7393219 6.70984536,21.7095082 7.57444163,21.7989492 C8.23034225,21.8585765 8.49866524,22.3654088 8.43903791,22.9914958 C8.37941058,23.5579554 8.0216466,23.8859057 7.39555965,23.8859057 C5.6663671,23.9157194 3.90736089,23.8859057 2.17816834,23.8859057 C0.180652814,23.8859057 0.0613981555,23.7666511 0.0613981555,21.7691355 L0.0613981555,17.1182039 C0.0613981555,16.8200672 0.0912118201,16.4921169 0.210466478,16.1939803 C0.419162131,15.6573343 0.8663671,15.4784523 1.40301306,15.5380796 C1.90984536,15.6275206 2.23779567,15.9256573 2.23779567,16.4623032 C2.26760934,17.3865268 2.26760934,18.3107504 2.26760934,19.2647877 C2.26760934,19.4734834 2.297423,19.7119927 2.297423,19.9206883 L2.47630499,20.0101293 L2.47630499,20.0101293 Z M20.1187882,21.4877406 C18.8666142,20.2653803 17.7635087,19.1920884 16.6604031,18.0889828 C16.2728254,17.7014052 16.1833844,17.2840139 16.4218938,16.8069952 C16.6604031,16.3299766 17.0777944,16.1212809 17.6144403,16.2405356 C17.8827633,16.3001629 18.1212726,16.5088586 18.3299683,16.6877406 C19.2541919,17.5821505 20.1784155,18.5361878 21.1026391,19.4305977 C21.2517074,19.579666 21.4007757,19.6989207 21.6690987,19.93743 L21.6690987,17.2840139 C21.6690987,16.9858772 21.6690987,16.6579269 21.7287261,16.3597903 C21.8777944,15.674076 22.2951857,15.3461257 22.9510863,15.4355667 C23.5175459,15.495194 23.8454962,15.8827716 23.8454962,16.5684859 L23.8454962,20.9212809 C23.8454962,21.4579269 23.8753099,21.9945729 23.8753099,22.5312188 C23.9051236,23.2765604 23.4281049,23.8430201 22.712577,23.8430201 C20.6554341,23.8430201 18.6281049,23.8430201 16.5709621,23.7833927 C16.2430118,23.7833927 15.7958068,23.5150698 15.6467385,23.2467468 C15.4976702,22.9784238 15.4976702,22.3821505 15.7063658,22.1734549 C16.0045024,21.8753182 16.5113347,21.6666226 16.9287261,21.6368089 C17.7635087,21.5473679 18.6281049,21.6069952 19.4628875,21.6069952 C19.6119559,21.5473679 19.7610242,21.5175542 20.1187882,21.4877406 L20.1187882,21.4877406 Z" id="形状" fill="#CFF1FF"></path>
            </g>
        </g>
    </g>
</svg>