<?xml version="1.0" encoding="UTF-8"?>
<svg width="32px" height="32px" viewBox="0 0 32 32" version="1.1" xmlns="http://www.w3.org/2000/svg" xmlns:xlink="http://www.w3.org/1999/xlink">
    <title>退出全屏</title>
    <g id="中文官网后台" stroke="none" stroke-width="1" fill="none" fill-rule="evenodd">
        <g id="退出全屏">
            <rect id="矩形" fill="#000000" opacity="0.700890677" x="0" y="0" width="32" height="32" rx="2"></rect>
            <g id="编组-22" transform="translate(4.000000, 4.000000)" fill-rule="nonzero">
                <path d="M4.51172093,6 C4.48190726,6.05962733 4.4520936,6.14906832 4.42227993,6.20869565 L3.70675198,6.20869565 C2.78252838,6.20869565 1.88811844,6.20869565 0.96389484,6.23850932 C0.427248878,6.26832298 0.099298567,6.59627329 0.0396712378,7.13291925 C-0.0199560914,7.69937888 0.188739561,8.11677019 0.725385524,8.29565217 C0.96389484,8.38509317 1.26203149,8.41490683 1.53035447,8.41490683 L6.98625509,8.41490683 C7.97010602,8.41490683 8.44712465,7.96770186 8.44712465,6.98385093 L8.44712465,1.46832298 C8.44712465,1.28944099 8.41731099,1.11055901 8.38749732,0.931677019 C8.238429,0.275776398 7.8210377,-0.0223602484 7.19495074,0.0372670807 C6.59867745,0.0968944099 6.27072714,0.454658385 6.27072714,1.14037267 C6.24091347,2.03478261 6.27072714,2.92919255 6.27072714,3.79378882 C6.27072714,4.00248447 6.24091347,4.21118012 6.21109981,4.41987578 C6.15147248,4.44968944 6.09184515,4.44968944 6.03221782,4.47950311 C5.58501285,4.03229814 5.16762155,3.5552795 4.72041658,3.10807453 C4.06451596,2.42236025 3.37880167,1.76645963 2.69308739,1.11055901 C2.30550975,0.752795031 1.82849111,0.693167702 1.38128614,0.961490683 C0.934081176,1.22981366 0.755199188,1.64720497 0.874453847,2.1242236 C0.934081176,2.39254658 1.14277683,2.6310559 1.35147248,2.83975155 C2.36513708,3.88322981 3.438429,4.92670807 4.51172093,6 L4.51172093,6 Z M17.7788017,4.50931677 C17.748988,4.18136646 17.748988,4.00248447 17.748988,3.79378882 C17.748988,2.95900621 17.7788017,2.15403727 17.748988,1.31925466 C17.7191743,0.752795031 17.570106,0.245962733 16.9440191,0.0670807453 C16.1688638,-0.171428571 15.5725905,0.305590062 15.5427768,1.2 C15.5129632,3.07826087 15.5427768,4.95652174 15.5129632,6.83478261 C15.4831495,7.9378882 15.8707271,8.41490683 16.9738327,8.41490683 L22.370106,8.41490683 C22.5788017,8.41490683 22.7874973,8.38509317 22.996193,8.3552795 C23.6520936,8.20621118 23.9502302,7.78881988 23.8906029,7.16273292 C23.8309756,6.56645963 23.4732116,6.23850932 22.7874973,6.23850932 C21.8930874,6.20869565 20.9986774,6.23850932 20.1340812,6.23850932 C19.9253855,6.23850932 19.7166899,6.20869565 19.3887396,6.17888199 C19.6570625,5.91055901 19.8061309,5.73167702 19.9551992,5.5826087 C20.9092365,4.62857143 21.8632737,3.70434783 22.7874973,2.72049689 C23.264516,2.2136646 23.2347023,1.55776398 22.7874973,1.11055901 C22.3402924,0.663354037 21.7142054,0.693167702 21.2073731,1.2 C20.2533358,2.1242236 19.3291122,3.07826087 18.4048886,4.00248447 C18.2260066,4.1515528 18.0471247,4.27080745 17.7788017,4.50931677 L17.7788017,4.50931677 Z M6.03221782,19.4161491 C6.09184515,19.4459627 6.15147248,19.4459627 6.21109981,19.4757764 C6.21109981,19.684472 6.24091347,19.9229814 6.24091347,20.131677 C6.24091347,21.0559006 6.24091347,21.9801242 6.27072714,22.9341615 C6.3005408,23.4409938 6.59867745,23.7689441 7.10550975,23.8583851 C7.67196937,23.9478261 8.08936068,23.7689441 8.29805633,23.2024845 C8.41731099,22.9341615 8.41731099,22.6062112 8.44712465,22.2782609 L8.44712465,17.6273292 C8.44712465,15.6298137 8.29805633,15.510559 6.33035447,15.510559 L1.11296316,15.510559 C0.486876207,15.510559 0.129112232,15.868323 0.0694849024,16.4049689 C0.00985757322,17.0310559 0.278180555,17.5378882 0.934081176,17.5975155 C1.79867745,17.6869565 2.69308739,17.6571429 3.58749732,17.6869565 L4.57134826,17.6869565 C4.30302528,17.9850932 4.15395695,18.1639752 3.97507496,18.3130435 L1.26203149,21.026087 C0.695571859,21.5925466 0.665758194,22.2484472 1.14277683,22.7254658 C1.61979546,23.2024845 2.24588242,23.1428571 2.84215571,22.5763975 C3.0210377,22.4273292 3.17010602,22.2484472 3.31917434,22.0993789 C4.24339795,21.2347826 5.13780788,20.3403727 6.03221782,19.4161491 L6.03221782,19.4161491 Z M19.2992986,17.7763975 C19.6570625,17.7465839 19.7763172,17.7167702 19.9253855,17.7167702 C20.7601681,17.7167702 21.6247644,17.7763975 22.459547,17.6869565 C22.8769383,17.6571429 23.3837706,17.4484472 23.6819073,17.1503106 C23.8906029,16.9416149 23.8906029,16.3453416 23.7415346,16.0770186 C23.5924663,15.8086957 23.1452613,15.5403727 22.817311,15.5403727 C20.7601681,15.4807453 18.7328389,15.4807453 16.6756961,15.4807453 C15.9601681,15.4807453 15.4831495,16.047205 15.5129632,16.7925466 C15.5427768,17.3291925 15.5427768,17.8658385 15.5427768,18.4024845 L15.5427768,22.7552795 C15.5427768,23.4409938 15.8707271,23.7987578 16.4371868,23.8881988 C17.0930874,23.9478261 17.5402924,23.6496894 17.659547,22.9639752 C17.7191743,22.6658385 17.7191743,22.3378882 17.7191743,22.0397516 L17.7191743,19.3863354 C17.9874973,19.6248447 18.1365656,19.7440994 18.285634,19.8931677 C19.2098576,20.8173913 20.1340812,21.7416149 21.0583048,22.6360248 C21.2670004,22.8149068 21.5055097,23.0236025 21.7738327,23.0832298 C22.280665,23.2024845 22.72787,22.9937888 22.9663793,22.5167702 C23.2048886,22.0397516 23.1154476,21.5925466 22.72787,21.2347826 C21.6545781,20.1018634 20.5514725,18.9987578 19.2992986,17.7763975 L19.2992986,17.7763975 Z" id="形状" fill="#FFFFFF"></path>
                <path d="M14.9862965,8 L15.0866702,8.0028551 C15.2859939,8.01927195 15.4739277,8.09421842 15.6284036,8.21841542 L15.70315,8.28479657 L15.7700658,8.35831549 L15.8291511,8.43683084 C15.917423,8.5681656 15.9736608,8.71805853 15.9928813,8.875803 L16,8.99500357 L15.9992881,14.821556 L15.9786439,14.821556 L15.9786439,15.0049964 L15.9743727,15.1006424 C15.9287215,15.5724556 15.5576727,15.9465878 15.0873821,15.9950036 L14.9919915,16 L8.99234739,16 L8.89695675,15.9957173 C8.42640306,15.949944 8.05326967,15.577902 8.00498309,15.1063526 L8,15.0107066 L8,8.99500357 L8.00427122,8.8993576 C8.04911906,8.4261242 8.42427478,8.04996431 8.89695675,8.00428266 L8.99234739,8 L14.9862965,8 Z" id="路径" fill="#FFA216"></path>
                <path d="M4.51172093,6 C3.438429,4.92670807 2.36513708,3.88322981 1.32165882,2.80993789 C1.11296316,2.60124224 0.934081176,2.36273292 0.844640182,2.09440994 C0.725385524,1.6173913 0.904267511,1.2 1.35147248,0.931677019 C1.79867745,0.663354037 2.27569608,0.693167702 2.66327372,1.08074534 C3.34898801,1.73664596 4.03470229,2.42236025 4.69060291,3.07826087 C5.13780788,3.52546584 5.55519919,4.00248447 6.00240416,4.44968944 C6.06203149,4.41987578 6.12165882,4.41987578 6.18128614,4.39006211 C6.21109981,4.18136646 6.24091347,3.97267081 6.24091347,3.76397516 L6.24091347,1.11055901 C6.24091347,0.42484472 6.59867745,0.0670807453 7.16513708,0.00745341615 C7.79122403,-0.052173913 8.20861534,0.245962733 8.35768366,0.901863354 C8.38749732,1.08074534 8.41731099,1.25962733 8.41731099,1.43850932 L8.41731099,6.95403727 C8.41731099,7.9378882 7.97010602,8.38509317 6.95644142,8.38509317 L1.5005408,8.38509317 C1.23221782,8.38509317 0.96389484,8.3552795 0.695571859,8.26583851 C0.158925896,8.08695652 -0.049769756,7.66956522 0.00985757322,7.10310559 C0.0694849024,6.56645963 0.397435213,6.20869565 0.934081176,6.20869565 C1.82849111,6.17888199 2.75271472,6.17888199 3.67693832,6.17888199 L4.39246627,6.17888199 C4.4520936,6.14906832 4.48190726,6.05962733 4.51172093,6 L4.51172093,6 Z M17.7788017,4.50931677 C18.017311,4.27080745 18.196193,4.1515528 18.3452613,3.97267081 L21.1477458,1.17018634 C21.6545781,0.663354037 22.280665,0.633540373 22.72787,1.08074534 C23.175075,1.52795031 23.2048886,2.15403727 22.72787,2.69068323 C21.8036464,3.67453416 20.8496091,4.59875776 19.8955719,5.55279503 C19.7465035,5.70186335 19.5974352,5.88074534 19.3291122,6.14906832 C19.6570625,6.17888199 19.8657582,6.20869565 20.0744538,6.20869565 L22.72787,6.20869565 C23.3837706,6.20869565 23.7713483,6.56645963 23.8309756,7.13291925 C23.8906029,7.75900621 23.5924663,8.17639752 22.9365656,8.32546584 C22.72787,8.38509317 22.5191743,8.38509317 22.3104787,8.38509317 L16.9142054,8.38509317 C15.8110998,8.38509317 15.4235222,7.90807453 15.4533358,6.80496894 C15.5725905,4.95652174 15.5427768,3.07826087 15.5427768,1.2 C15.5427768,0.305590062 16.1390501,-0.171428571 16.9440191,0.0670807453 C17.570106,0.245962733 17.7191743,0.782608696 17.748988,1.31925466 C17.7788017,2.15403727 17.748988,2.95900621 17.748988,3.79378882 C17.748988,4.00248447 17.7788017,4.18136646 17.7788017,4.50931677 L17.7788017,4.50931677 Z M6.03221782,19.4161491 C5.13780788,20.310559 4.24339795,21.2347826 3.31917434,22.1291925 L2.84215571,22.6062112 C2.24588242,23.1726708 1.61979546,23.2024845 1.14277683,22.7552795 C0.665758194,22.3080745 0.695571859,21.6223602 1.26203149,21.0559006 C2.15644142,20.131677 3.08066503,19.2372671 3.97507496,18.3428571 C4.12414329,18.1937888 4.27321161,18.0149068 4.57134826,17.7167702 L3.58749732,17.7167702 C2.69308739,17.6869565 1.79867745,17.7167702 0.934081176,17.6273292 C0.278180555,17.5677019 0.00985757322,17.0608696 0.0694849024,16.4347826 C0.129112232,15.868323 0.486876207,15.5403727 1.11296316,15.5403727 C2.84215571,15.510559 4.60116192,15.5403727 6.33035447,15.5403727 C8.32787,15.5403727 8.44712465,15.6596273 8.44712465,17.6571429 L8.44712465,22.3080745 C8.44712465,22.6062112 8.41731099,22.9341615 8.29805633,23.2322981 C8.08936068,23.7689441 7.64215571,23.9478261 7.10550975,23.8881988 C6.59867745,23.7987578 6.27072714,23.5006211 6.27072714,22.9639752 C6.24091347,22.0397516 6.24091347,21.115528 6.24091347,20.1614907 C6.24091347,19.952795 6.21109981,19.7142857 6.21109981,19.5055901 L6.03221782,19.4161491 L6.03221782,19.4161491 Z M19.2992986,17.7763975 C20.5514725,18.9987578 21.6545781,20.0720497 22.7576837,21.1751553 C23.1452613,21.5627329 23.2347023,21.9801242 22.996193,22.4571429 C22.7576837,22.9341615 22.3402924,23.1428571 21.8036464,23.0236025 C21.5353234,22.9639752 21.2968141,22.7552795 21.0881184,22.5763975 C20.1638948,21.6819876 19.2396712,20.7279503 18.3154476,19.8335404 C18.1663793,19.684472 18.017311,19.5652174 17.748988,19.3267081 L17.748988,21.9801242 C17.748988,22.2782609 17.748988,22.6062112 17.6893607,22.9043478 C17.5402924,23.5900621 17.1229011,23.9180124 16.4670004,23.8285714 C15.9005408,23.7689441 15.5725905,23.3813665 15.5725905,22.6956522 L15.5725905,18.3428571 C15.5725905,17.8062112 15.5427768,17.2695652 15.5427768,16.7329193 C15.5129632,15.9875776 15.9899818,15.421118 16.7055097,15.421118 C18.7626526,15.421118 20.7899818,15.421118 22.8471247,15.4807453 C23.175075,15.4807453 23.6222799,15.7490683 23.7713483,16.0173913 C23.9204166,16.2857143 23.9204166,16.8819876 23.7117209,17.0906832 C23.4135843,17.3888199 22.906752,17.5975155 22.4893607,17.6273292 C21.6545781,17.7167702 20.7899818,17.6571429 19.9551992,17.6571429 C19.8061309,17.7167702 19.6570625,17.7465839 19.2992986,17.7763975 L19.2992986,17.7763975 Z" id="形状" fill="#CFF1FF"></path>
            </g>
        </g>
    </g>
</svg>